<svg xmlns="http://www.w3.org/2000/svg" width="1297" height="1177" fill="none" xmlns:v="https://vecta.io/nano"><path fill-rule="evenodd" d="M182.788 668.296l-3.554-5.099-3.734-5.071-3.911-5.052-4.085-5.041-4.254-5.038-4.417-5.044-4.573-5.059-4.721-5.082-4.86-5.115-4.988-5.155-5.104-5.203-5.21-5.261-5.301-5.325-5.378-5.396-5.442-5.475-5.491-5.56-5.522-5.65-5.539-5.747-5.538-5.849-5.52-5.953-5.486-6.063-5.433-6.175-5.363-6.29-5.275-6.406-5.17-6.523-5.047-6.641-4.907-6.759-4.749-6.875-4.576-6.99-4.386-7.102-4.18-7.212-3.96-7.318-3.727-7.42-3.479-7.518-3.22-7.609-2.95-7.696-2.67-7.776-2.38-7.849-2.081-7.917-1.774-7.976-1.459-8.029-1.138-8.073-.811-8.109-.479-8.136-.142-8.156.198-8.167.542-8.169.887-8.162 1.233-8.146 1.58-8.122 1.926-8.087 2.271-8.045 2.615-7.993 2.955-7.933 3.293-7.864 3.625-7.786 3.954-7.701 4.277-7.608 4.593-7.506 4.903-7.397 5.206-7.281 5.5-7.158 5.787-7.028 6.064-6.892 6.332-6.751 6.591-6.604 6.839-6.451 7.077-6.294 7.304-6.133 7.52-5.969 7.725-5.799 7.918-5.629 8.1-5.455 8.27-5.279 8.429-5.101 8.575-4.923 8.711-4.743 8.834-4.563 8.945-4.384 9.046-4.204 9.135-4.025 9.212-3.848 9.279-3.673 9.334-3.499 9.38-3.327 9.414-3.158 9.44-2.992 9.455-2.829 9.461-2.669 9.458-2.514 9.446-2.362 9.427-2.214 9.398-2.071 9.364-1.932 9.32-1.797 9.271-1.668 9.216-1.544 9.154-1.424 9.087-1.31 9.015-1.2 8.941-1.094 8.864-.992 8.784-.892 8.703-.794 8.623-.698 8.541-.604 8.46-.511 8.379-.418 8.298-.326 8.218-.234 8.138-.142 8.059-.051 7.98.041 7.901.132 7.822.223 7.743.312 7.662.401 7.582.488 7.5.573 7.416.654 7.332.733 7.244.806 7.154.875 7.064.937 6.969.993 6.873 1.042 6.776 1.084 6.676 1.118 6.577 1.145 6.475 1.164 6.374 1.175 6.273 1.179 6.171 1.173 6.071 1.161 5.971 1.139 5.873 1.109 5.776 1.072 5.682 1.027 5.591.973 5.503.911 5.417.842 5.336.766 5.259.683 5.186.592 5.119.496 5.056.393 4.998.284 4.948.171 4.902.053 4.863-.071 4.831-.196 4.805-.327 4.786-.459 4.773-.593 4.768-.729 4.77-.866 4.779-1.003 4.794-1.14 4.817-1.275 4.846-1.411 4.882-1.543 4.925-1.672 4.974-1.799 5.028-1.922 5.09-2.04 5.156-2.154 5.228-2.262 5.305-2.365 5.385-2.462 5.471-2.552 5.561-2.634 5.653-2.71 5.749-2.779 5.848-2.839 5.948-2.892 6.051-2.936 6.155-2.972 6.26-2.999 6.365-3.019 6.471-3.029 6.576-3.031 6.682-3.025 6.784-3.01 6.888-2.987 6.988-2.955 7.087-2.916 7.183-2.869 7.277-2.813 7.367-2.75 7.454-2.679 7.537-2.6 7.616-2.514 7.692-2.42 7.761-2.32 7.826-2.213 7.886-2.098 7.946-1.978 7.98-1.851 8.04-1.718 8.07-1.58 8.1-1.436 8.12-1.286 8.14-1.131 8.15-.971 8.16-.806 8.15-.635 8.13-.459 8.11-.278 8.08-.092 8.04.1 7.99.298 7.93.501 7.85.71 7.76.924 7.67 1.141 7.56 1.362 7.45 1.585 7.32 1.81 7.17 2.036 7.03 2.262 6.88 2.489 6.7 2.714 6.54 2.937 6.34 3.158 6.16 3.376 5.96 3.591 5.76 3.802 5.54 4.008 5.33 4.21 5.11 4.406 4.88 4.596 4.65 4.779 4.42 4.957 4.18 5.127 3.94 5.291 3.7 5.447 3.47 5.595 3.22 5.736 2.98 5.868 2.74 5.993 2.49 6.11 2.26 6.218 2.02 6.319 1.79 6.41 1.55 6.495 1.32 6.571 1.1 6.638.87 6.699.66 6.752.45 6.796.23 6.833.03 6.864-.16 6.886-.37 6.903-.54 6.912-.73 6.916-.91 6.912-1.07 6.904-1.24 6.888-1.39 6.869-1.55 6.843-1.68 6.813-1.83 6.778-1.95 6.738-2.08 6.696-2.19 6.648-2.31 6.597-2.4 6.542-2.5 6.486-2.6 6.425-2.67 6.362-2.75 6.298-2.82 6.23-2.87 6.161-2.94 6.091-2.98 6.019-3.03 5.946-3.06 5.875-3.11 5.801-3.14 5.729-3.17 5.656-3.2 5.585-3.22 5.513-3.26 5.443-3.29 5.372-3.31 5.303-3.34 5.234-3.36 5.165-3.39 5.098-3.42 5.03-3.44 4.963-3.46 4.897-3.48 4.831-3.5 4.765-3.51 4.7-3.53 4.636-3.54 4.571-3.55 4.508-3.54 4.446-3.54 4.385-3.54 4.324-3.51 4.266-3.5 4.209-3.46 4.153-3.44 4.101-3.39 4.049-3.35 4.002-3.29 3.956-3.24 3.915-3.18 3.876-3.1 3.84-3.03 3.81-2.95 3.783-2.86 3.76-2.77 3.742-2.67 3.728-2.58 3.721-2.46 3.718-2.36 3.721-2.24 3.728-2.13 3.743-2.01 3.762-1.9 3.787-1.76 3.819-1.65 3.856-1.53 3.9-1.4 3.948-1.28 4.004-1.15 4.065-1.04 4.132-.93 4.203-.81 4.281-.7 4.364-.6 4.452-.49 4.543-.41 4.64-.31 4.741-.23 4.846-.15 4.953-.09 5.064-.03 5.177.03 5.293.07 5.41.11 5.529.13 5.648.16 5.769.16 5.889.16 6.008.14 6.127.13 6.245.1 6.36.06 6.474.01 6.585-.05 6.692-.12 6.797-.2 6.897-.28 6.994-.38 7.086-.48 7.173-.59 7.255-.71 7.332-.84 7.402-.97 7.468-1.11 7.528-1.26 7.583-1.4 7.634-1.56 7.68-1.71 7.725-1.87 7.764-2.02 7.803-2.19 7.838-2.35 7.871-2.51 7.902-2.67 7.931-2.83 7.959-2.99 7.984-3.16 8.008-3.33 8.03-3.48 8.049-3.66 8.065-3.82 8.08-3.99 8.089-4.16 8.095-4.33 8.096-4.5 8.091-4.68 8.079-4.85 8.06-5.04 8.033-5.22 7.995-5.4 7.95-5.593 7.894-5.775 7.826-5.962 7.76-6.148 7.67-6.335 7.58-6.521 7.47-6.704 7.36-6.886 7.24-7.066 7.11-7.243 6.97-7.417 6.82-7.588 6.67-7.753 6.49-7.915 6.33-8.071 6.14-8.224 5.96-8.369 5.76-8.509 5.55-8.644 5.35-8.77 5.14-8.892 4.92-9.005 4.69-9.113 4.47-9.211 4.24-9.304 4.01-9.389 3.76-9.466 3.53-9.535 3.29-9.598 3.05-9.651 2.81-9.699 2.57-9.739 2.33-9.771 2.09-9.796 1.85-9.814 1.61-9.825 1.38-9.83 1.15-9.828.92-9.82.7-9.806.47-9.786.26-9.761.04-9.73-.16-9.695-.38-9.654-.57-9.61-.76-9.56-.96-9.508-1.15-9.451-1.32-9.391-1.5-9.327-1.68-9.261-1.84-9.191-2-9.119-2.17-9.045-2.32-8.967-2.46-8.887-2.62-8.806-2.75-8.722-2.9-8.636-3.03-8.548-3.16-8.458-3.3-8.366-3.42-8.27-3.55-8.172-3.67-8.07-3.81-7.964-3.93-7.855-4.07-7.741-4.19-7.622-4.33-7.499-4.46-7.371-4.6-7.236-4.74-7.097-4.87-6.951-5.02-6.801-5.17-6.645-5.3-6.483-5.45-6.315-5.6-6.143-5.74-5.965-5.88-5.783-6.02-5.598-6.16-5.408-6.3-5.217-6.43-5.022-6.55-4.827-6.67-4.631-6.79-4.434-6.896-4.238-6.999-4.04-7.094-3.845-7.183-3.651-7.265-3.458-7.34-3.269-7.407-3.082-7.467-2.9-7.519-2.721-7.562-2.547-7.599-2.379-7.627-2.218-7.646-2.062-7.658-1.914-7.661-1.775-7.657-1.643-7.643-1.52-7.623-1.407-7.595-1.305-7.558-1.211-7.516-1.13-7.465-1.06-7.408-1.001-7.344-.953-7.275-.919-7.201-.896-7.119-.886-7.036-.889-6.946-.904-6.853-.932-6.758-.972-6.659-1.025-6.559-1.089-6.457-1.167-6.354-1.254-6.252-1.354-6.15-1.465-6.049-1.584-5.949-1.715-5.852-1.853-5.758-2-5.668-2.156-5.581-2.316-5.5-2.483-5.423-2.656-5.352-2.831-5.288-3.01-5.229-3.191-5.179-3.372-5.135z" fill="#7d54f1" fill-opacity=".07"/></svg>